<?xml version="1.0" encoding="utf-8"?>
<!-- Uploaded to: SVG Repo, www.svgrepo.com, Generator: SVG Repo Mixer Tools -->
<!DOCTYPE svg PUBLIC "-//W3C//DTD SVG 1.1//EN" "http://www.w3.org/Graphics/SVG/1.1/DTD/svg11.dtd">
<svg fill="#000000" width="800px" height="800px" viewBox="0 0 1000 1000" version="1.1" xmlns="http://www.w3.org/2000/svg" xmlns:xlink="http://www.w3.org/1999/xlink"  enable-background="new 0 0 1000 1000" xml:space="preserve">

<g>
<g transform="translate(0.000000,511.000000) scale(0.100000,-0.100000)">
<path d="M8477.4,4377.7v-632.3H4288.7H100V-522.3V-4790h4520.6c4068.2,0,4532.5,4,4629.3,31.6c288.5,85,523.6,314.2,612.5,602.6c35.6,116.6,37.5,252.9,37.5,4236.1c0,2938-5.9,4147.2-21.7,4222.3c-69.2,326-359.6,616.4-685.6,685.6c-57.3,11.9-243,21.7-409,21.7h-306.3V4377.7z M9226.3,4662.3c77-21.7,132.4-57.3,199.6-126.5c171.9-169.9,158.1,183.7,158.1-4054.4v-3752l-63.2,47.4c-160,120.5-330,171.9-563.1,171.9h-164V821.3v3872.6h164C9050.4,4693.9,9169,4680,9226.3,4662.3z M8477.4,31v-3398.4h322.1c405,0,492-21.7,628.3-158.1c71.1-71.1,102.7-122.5,128.4-209.4c65.2-227.2-11.8-503.8-175.8-622.4c-171.9-124.5,144.2-116.6-4621.4-116.6H416.1v3951.6v3951.6h4030.6h4030.6V31z"/>
<path d="M1811,2737.8c-604.6-166-804.2-229.2-855.5-268.7c-88.9-69.2-179.8-193.6-203.5-286.5c-13.8-49.4-19.8-559.2-15.8-1454.2c5.9-1371.2,5.9-1379.1,49.4-1458.1c53.3-98.8,146.2-187.7,460.4-438.6c136.3-108.7,256.9-209.4,268.7-225.2c11.9-15.8,49.4-245,83-509.8c55.3-438.6,65.2-490,116.6-571c67.2-108.7,195.6-211.4,298.3-241c45.4-11.8,448.5-19.8,1082.7-19.8c1211.2,0,1098.6,27.7,1116.3-280.6c15.8-270.7,27.7-296.4,371.5-719.2c211.4-260.8,298.3-339.8,412.9-383.3c98.8-37.5,154.1-39.5,1256.6-39.5c1311.9,0,1274.4-4,1436.4,158.1c160.1,160,193.6,361.6,94.9,559.2c-23.7,45.4-126.5,167.9-227.2,272.7L7371-2980.2v1367.3v1365.3l367.5,588.8c203.5,324,381.3,628.3,395.2,675.7c43.5,138.3,37.5,989.9-5.9,1118.3c-43.5,128.4-183.7,268.7-312.2,312.2c-114.6,39.5-401.1,43.5-505.8,5.9c-37.5-13.8-298.4-154.1-576.9-314.2L6225,1848.7h-205.5c-166,0-213.4,5.9-247,35.6c-31.6,23.7-73.1,136.3-150.2,409c-59.3,205.5-108.7,377.4-108.7,379.4c0,25.7-181.8,195.6-247,229.2c-79,43.5-87,43.5-1373.2,47.4l-1294.2,3.9L1811,2737.8z M5175.9,2605.4c41.5-33.6,67.2-114.6,231.2-693.5c33.6-122.5,150.2-260.8,274.6-326c104.7-55.3,468.3-73.1,618.4-27.7c53.3,15.8,326,158.1,604.6,318.1l505.8,288.5h167.9c154.1,0,173.9-4,217.3-49.4l49.4-47.4v-482.1v-482.1l-369.5-590.8c-201.5-326-379.4-632.2-395.2-681.6c-21.7-73.1-25.7-353.7-21.7-1481.8l5.9-1391l47.4-88.9c25.7-49.4,130.4-173.9,231.2-278.6c167.9-169.9,185.7-195.6,185.7-262.8c0-51.4-13.8-86.9-49.4-122.5l-47.4-47.4l-1181.5,4l-1179.6,5.9L4919-3644l-154.1,187.7l122.5,63.2c65.2,35.6,128.4,73.1,138.3,83c15.8,15.8-65.2,152.1-146.2,247c-7.9,7.9-81-19.8-160-65.2c-179.8-98.8-193.6-90.9-193.6,116.6c0,254.9-85,416.9-272.7,529.5l-92.9,53.3l-1063,9.9l-1065,9.9l-37.5,47.4c-19.8,25.7-37.5,55.3-37.5,69.2c0,11.9-25.7,229.2-57.3,482.1c-77.1,600.7-61.3,571-505.8,930.6l-335.9,268.7L1052.3,764c-4,1288.2-2,1379.1,29.6,1418.6c27.7,31.6,205.5,88.9,786.4,247l750.8,207.5h1256.6C5045.4,2639,5136.3,2637.1,5175.9,2605.4z"/>
<path d="M1838.7,1838.8L1732,1730.2l175.8-177.8l177.8-177.8l-177.8-177.8L1730,1018.9l114.6-112.6l112.6-114.6l177.8,177.8l177.8,177.8l177.8-177.8l177.8-177.8l112.6,114.6l114.6,112.6l-177.8,177.8l-177.8,177.8l177.8,177.8l177.8,177.8l-114.6,112.6l-112.6,114.6l-177.8-177.8l-177.8-177.8L2139,1775.6c-94.8,94.8-177.8,171.9-183.8,171.9C1951.3,1947.5,1898,1898.1,1838.7,1838.8z"/>
<path d="M3261.3,1372.5c-23.7-77.1-39.5-142.3-35.6-146.2c4-4,104.7-35.6,223.3-71.1c120.5-33.6,247-75.1,284.5-90.9c35.6-15.8,67.2-25.7,69.2-21.7c7.9,9.9,110.6,272.7,110.6,280.6c0,15.8-537.4,189.7-586.8,189.7C3314.6,1512.8,3285,1449.6,3261.3,1372.5z"/>
<path d="M4440.8,920.1l-73.1-134.4l142.3-83c79-47.4,195.6-120.5,256.9-162l112.6-75.1l88.9,116.6c49.4,65.2,90.9,122.5,90.9,130.4c0,13.8-357.6,247-466.3,302.3l-81,41.5L4440.8,920.1z"/>
<path d="M5438.6,157.4c-55.3-49.4-102.7-96.8-102.7-102.7c0-7.9,39.5-67.2,88.9-132.4c49.4-65.2,116.6-169.9,148.2-231.2c33.6-63.2,65.2-114.6,69.2-114.6c2,0,67.2,25.7,142.3,59.3c81,33.6,132.4,67.2,128.4,83c-21.8,85-304.3,507.8-349.7,523.6C5551.3,246.3,5495.9,206.8,5438.6,157.4z"/>
<path d="M5926.7-970.8l-130.4-7.9l-9.9-300.3c-5.9-166-7.9-302.3-5.9-306.3c2-2,65.2-11.9,140.3-21.7c90.9-9.9,140.3-9.9,150.2,4c17.8,27.7,39.5,395.2,31.6,525.6c-4,59.3-13.8,108.7-25.7,110.6C6066.9-966.8,5997.8-968.8,5926.7-970.8z"/>
<path d="M5547.3-2306.4c-39.5-79-106.7-187.7-150.2-245l-79-102.7l114.6-98.8c63.2-55.3,120.5-100.8,126.4-100.8c19.8,0,209.4,292.4,278.6,430.7l71.1,142.3l-43.5,17.8c-25.7,9.9-90.9,35.6-146.2,57.3l-102.7,41.5L5547.3-2306.4z"/>
<path d="M3419.4-3541.3c-146.2-27.7-268.7-51.4-270.7-53.3c-5.9-2,31.6-241.1,43.5-278.6c4-15.8,55.3-13.8,181.8,3.9c181.8,27.7,418.9,77.1,432.7,92.9c7.9,7.9-5.9,83-41.5,247C3753.3-3478.1,3761.2-3478.1,3419.4-3541.3z"/>
<path d="M2206.2-3667.7c-164-9.9-298.3-19.8-300.3-21.7c-3.9-2,0-71.1,5.9-152.1l11.9-148.2l169.9,5.9c92.9,2,235.1,9.9,314.2,15.8c138.3,11.9,146.2,13.8,134.4,53.3c-5.9,23.7-11.9,94.8-11.9,158.1c0,61.3-5.9,110.7-13.8,110.7C2506.5-3648,2368.2-3657.9,2206.2-3667.7z"/>
</g>
</g>
</svg>